<svg xmlns="http://www.w3.org/2000/svg" xmlns:xlink="http://www.w3.org/1999/xlink" viewBox="0 0 400 400"><defs><style>.a{clip-path:url(#ap);}.b{fill:url(#a);}.c{fill:#49ab74;}.d{fill:url(#c);}.e{fill:url(#d);}.f{fill:#97bc60;}.g{fill:url(#e);}.h{fill:url(#f);}.i{fill:url(#h);}.j{fill:url(#i);}.k{fill:url(#k);}.l{fill:#f7eeb7;}.m{fill:#4c6268;}.n{fill:url(#n);}.o{fill:#46a476;}.p{fill:url(#r);}.q{fill:url(#s);}.r{fill:url(#v);}.s{fill:url(#w);}.t{fill:url(#y);}.u{fill:url(#z);}.v{fill:url(#ab);}.w{fill:url(#ae);}.x{fill:url(#ah);}.y{fill:url(#ak);}.z{fill:url(#am);}.aa{fill:#fff;}</style><linearGradient id="a" y1="0.5" x2="1" y2="0.5" gradientUnits="objectBoundingBox"><stop offset="0.014" stop-color="#4f9da1"/><stop offset="0.986" stop-color="#58928b"/></linearGradient><linearGradient id="c" y1="0.5" x2="1" y2="0.5" gradientUnits="objectBoundingBox"><stop offset="0.036" stop-color="#d6dc6e"/><stop offset="0.751" stop-color="#b8d656"/></linearGradient><linearGradient id="d" y1="0.5" x2="1" y2="0.5" gradientUnits="objectBoundingBox"><stop offset="0.036" stop-color="#d6dc6e"/><stop offset="0.751" stop-color="#97bc60"/></linearGradient><linearGradient id="e" y1="0.5" x2="1" y2="0.5" gradientUnits="objectBoundingBox"><stop offset="0.036" stop-color="#8cbb4b"/><stop offset="0.751" stop-color="#b8d656"/></linearGradient><linearGradient id="f" y1="0.5" x2="1" y2="0.5" gradientUnits="objectBoundingBox"><stop offset="0.036" stop-color="#7ba955"/><stop offset="0.751" stop-color="#589461"/><stop offset="1" stop-color="#3f8441"/></linearGradient><linearGradient id="h" x1="1" y1="0.5" x2="0" y2="0.5" gradientUnits="objectBoundingBox"><stop offset="0.036" stop-color="#97c255"/><stop offset="0.751" stop-color="#4e948b"/><stop offset="1" stop-color="#3f8441"/></linearGradient><linearGradient id="i" y1="0.5" x2="1" y2="0.5" gradientUnits="objectBoundingBox"><stop offset="0.036" stop-color="#c7d155"/><stop offset="0.226" stop-color="#c3cf55"/><stop offset="0.986" stop-color="#589461"/></linearGradient><linearGradient id="k" x1="1" y1="0.5" x2="0" y2="0.5" xlink:href="#i"/><linearGradient id="n" y1="0.5" x2="1" y2="0.5" gradientUnits="objectBoundingBox"><stop offset="0.036" stop-color="#4a9383"/><stop offset="0.868" stop-color="#bad34d"/></linearGradient><linearGradient id="r" y1="0.5" x2="1" y2="0.5" gradientUnits="objectBoundingBox"><stop offset="0.036" stop-color="#45888b"/><stop offset="0.751" stop-color="#b8f29c"/></linearGradient><linearGradient id="s" y1="0.5" x2="1" y2="0.5" gradientUnits="objectBoundingBox"><stop offset="0.036" stop-color="#458836"/><stop offset="0.757" stop-color="#72bc97"/></linearGradient><linearGradient id="v" x1="1" y1="0.5" x2="0" y2="0.5" gradientUnits="objectBoundingBox"><stop offset="0.053" stop-color="#de7d55"/><stop offset="0.829" stop-color="#b8d656"/></linearGradient><linearGradient id="w" x1="-0.367" y1="0.095" x2="0.95" y2="0.967" gradientUnits="objectBoundingBox"><stop offset="0.053" stop-color="#de7d55"/><stop offset="0.829" stop-color="#b8d67c"/></linearGradient><linearGradient id="y" y1="0.5" x2="1" y2="0.5" gradientUnits="objectBoundingBox"><stop offset="0.036" stop-color="#8cbb95"/><stop offset="0.818" stop-color="#d9ae4a"/></linearGradient><linearGradient id="z" y1="0.5" x2="1" y2="0.5" gradientUnits="objectBoundingBox"><stop offset="0.014" stop-color="#4f9d4a"/><stop offset="0.986" stop-color="#589251"/></linearGradient><linearGradient id="ab" x1="-0.082" y1="0.166" x2="1.267" y2="0.876" gradientUnits="objectBoundingBox"><stop offset="0.014" stop-color="#77ba4a"/><stop offset="0.986" stop-color="#589290"/></linearGradient><linearGradient id="ae" x1="0.5" x2="0.5" y2="1" gradientUnits="objectBoundingBox"><stop offset="0.036" stop-color="#7ba955"/><stop offset="0.751" stop-color="#5fab53"/></linearGradient><linearGradient id="ah" y1="0.5" x2="1" y2="0.5" gradientUnits="objectBoundingBox"><stop offset="0.014" stop-color="#77ba4a"/><stop offset="0.986" stop-color="#589251"/></linearGradient><linearGradient id="ak" x1="0" y1="0.5" x2="1" y2="0.5" xlink:href="#ae"/><linearGradient id="am" y1="0.5" x2="1" y2="0.5" gradientUnits="objectBoundingBox"><stop offset="0.036" stop-color="#7ba955"/><stop offset="0.751" stop-color="#46a476"/><stop offset="1" stop-color="#3f8441"/></linearGradient><clipPath id="ap"><rect width="400" height="400"/></clipPath></defs><g id="ao" class="a"><rect class="aa" width="400" height="400"/><g transform="translate(118.385 96.241)"><g transform="translate(62.61 64.339)"><path class="b" d="M1467.967,4856.372s-11.418,5.108-10.012,22.9C1457.955,4879.274,1476.868,4852,1467.967,4856.372Z" transform="translate(-1457.52 -4855.58)"/><path class="c" d="M1457.709,4880.183l-.07-.884c-.734-9.292,2.066-15.1,4.543-18.341a16.4,16.4,0,0,1,5.65-4.872c1.262-.62,2.092-.67,2.538-.152.639.742.789,2.882-5.254,12.869-3.279,5.418-6.865,10.6-6.9,10.651Zm11.8-23.969a3.577,3.577,0,0,0-1.4.442l-.01.005c-.11.05-10.812,5.061-9.887,21.686,5.461-7.961,13.079-20.376,11.682-22A.485.485,0,0,0,1469.508,4856.214Z" transform="translate(-1457.52 -4855.58)"/></g><g transform="translate(50.824 60.87)"><path class="b" d="M1465.118,4852.44s-12.611-1.125-18.819,17.966C1446.3,4870.406,1475.116,4852.911,1465.118,4852.44Z" transform="translate(-1445.734 -4852.111)"/><path class="c" d="M1445.734,4871.119l.264-.811c3.239-9.962,8.253-14.375,11.889-16.323a14.062,14.062,0,0,1,7.252-1.86c1.383.066,2.178.469,2.363,1.2.982,3.856-18.782,15.982-21.039,17.352Zm19.008-18.374a14.327,14.327,0,0,0-6.593,1.818c-3.421,1.844-8.106,5.961-11.274,15.12,8.663-5.319,20.652-13.7,20.014-16.2-.136-.535-1.046-.688-1.786-.723h-.013C1465.085,4852.755,1464.963,4852.745,1464.742,4852.745Z" transform="translate(-1445.734 -4852.111)"/></g><g transform="translate(21.533 47.785)"><path class="d" d="M1433.412,4839.345s-10.763-.686-16.369,14.384C1417.043,4853.729,1441.952,4839.558,1433.412,4839.345Z" transform="translate(-1416.443 -4839.026)"/><path class="c" d="M1416.443,4854.434l.3-.816c5.554-14.928,16.313-14.606,16.677-14.589.457.011,1.828.047,2.058.965.756,3-15.1,12.2-18.282,14.01Zm16.8-14.776c-1.282,0-10.421.469-15.583,13.353,7.216-4.162,17.684-10.971,17.209-12.863-.073-.288-.606-.466-1.464-.487h-.011C1433.386,4839.66,1433.334,4839.658,1433.242,4839.658Z" transform="translate(-1416.443 -4839.026)"/></g><g transform="translate(32.094 50.589)"><path class="e" d="M1440.992,4842.218s-10.712,1.256-13.524,17.087C1427.468,4859.305,1449.432,4840.9,1440.992,4842.218Z" transform="translate(-1427.004 -4841.83)"/><path class="c" d="M1427,4860.106l.153-.857c2.786-15.684,13.425-17.295,13.789-17.344.451-.071,1.807-.281,2.2.58,1.282,2.822-12.664,14.708-15.473,17.062Zm14.754-17.638a4.616,4.616,0,0,0-.717.063h-.012c-.1.012-10.118,1.381-13.083,15.956,6.352-5.389,15.429-13.965,14.622-15.741C1442.484,4842.563,1442.2,4842.468,1441.758,4842.468Z" transform="translate(-1427.004 -4841.83)"/></g><g transform="translate(42.663 52.571)"><path class="f" d="M1447.2,4844.132s-10.283-.733-9.234,22.006C1437.964,4866.138,1455.22,4844.218,1447.2,4844.132Z" transform="translate(-1437.573 -4843.813)"/><path class="c" d="M1437.688,4867l-.04-.849c-.569-12.322,2.232-17.755,4.681-20.144a6.857,6.857,0,0,1,4.881-2.192,2.22,2.22,0,0,1,2.184,1.16c2.106,4.4-10.637,20.667-11.181,21.357Zm9.414-22.554a6.476,6.476,0,0,0-4.351,2.033c-2.29,2.248-4.9,7.328-4.505,18.781,3.911-5.078,12.112-16.808,10.578-20.012a1.63,1.63,0,0,0-1.63-.8h-.092Z" transform="translate(-1437.573 -4843.813)"/></g><g transform="translate(49.417 56.622)"><path class="g" d="M1453.952,4848.183s-10.284-.733-9.234,22.006C1444.718,4870.189,1461.973,4848.269,1453.952,4848.183Z" transform="translate(-1444.328 -4847.863)"/><path class="c" d="M1444.441,4871.052l-.039-.848c-.569-12.322,2.231-17.756,4.681-20.145a6.847,6.847,0,0,1,4.881-2.192,2.221,2.221,0,0,1,2.184,1.16c2.106,4.4-10.638,20.667-11.181,21.358Zm9.415-22.554a6.474,6.474,0,0,0-4.351,2.034c-2.29,2.247-4.9,7.327-4.505,18.78,3.911-5.078,12.112-16.808,10.578-20.011a1.629,1.629,0,0,0-1.63-.8h-.092Z" transform="translate(-1444.328 -4847.863)"/></g><g transform="translate(77.083 73.96)"><path class="h" d="M1501.654,4865.488s-26.665,12.62-29.339,35.022l.667,2.382S1474.981,4882.258,1501.654,4865.488Z" transform="translate(-1471.993 -4865.201)"/><path class="c" d="M1473.133,4904.608l-1.14-4.074.008-.062c1.393-11.674,9.351-20.645,15.781-26.115a70.6,70.6,0,0,1,13.737-9.156l.3.555c-13.72,8.625-20.748,18.286-24.228,24.871-3.761,7.117-4.293,12.244-4.3,12.295Zm-.5-4.123.263.936a41.72,41.72,0,0,1,4.137-11.09,64,64,0,0,1,17.881-20.541,71.181,71.181,0,0,0-6.737,5.059C1481.853,4880.235,1474.026,4889.051,1472.636,4900.485Z" transform="translate(-1471.993 -4865.201)"/></g><g transform="translate(47.419 38.779)"><path class="f" d="M1456.968,4850s5.952-8.417-14.043-19.295C1442.925,4830.7,1452.74,4856.816,1456.968,4850Z" transform="translate(-1442.329 -4830.02)"/><path class="c" d="M1455.308,4851.45a1.987,1.987,0,0,1-.2-.01c-4.851-.475-12.171-19.8-12.48-20.625l-.3-.795.747.4c10.835,5.9,14.034,11.1,14.809,14.436a6.853,6.853,0,0,1-.653,5.311A2.284,2.284,0,0,1,1455.308,4851.45Zm-11.779-20.052c2.318,5.976,8.106,19.066,11.641,19.413.582.057,1.085-.264,1.529-.98l.01-.015a6.346,6.346,0,0,0,.553-4.838C1456.525,4841.855,1453.53,4836.993,1443.529,4831.4Z" transform="translate(-1442.329 -4830.02)"/></g><g transform="translate(59.462 43.316)"><path class="g" d="M1469.01,4854.536s5.953-8.418-14.043-19.295C1454.967,4835.241,1464.783,4861.353,1469.01,4854.536Z" transform="translate(-1454.372 -4834.557)"/><path class="c" d="M1467.35,4855.988c-.066,0-.132,0-.2-.01-4.852-.476-12.171-19.8-12.48-20.626l-.3-.795.746.406c10.836,5.894,14.034,11.1,14.809,14.436a6.858,6.858,0,0,1-.652,5.31A2.286,2.286,0,0,1,1467.35,4855.988Zm-11.778-20.053c2.318,5.976,8.106,19.066,11.641,19.413a1.632,1.632,0,0,0,1.528-.979l.011-.016a6.349,6.349,0,0,0,.552-4.838C1468.568,4846.392,1465.572,4841.53,1455.572,4835.935Z" transform="translate(-1454.372 -4834.557)"/></g><g transform="translate(60.729 147.108)"><path class="i" d="M1458.387,4938.73s1.906,14.774.96,22.2a77.778,77.778,0,0,1-3.379,14.279s1.623,7.063,8.782,7.063,13.264-7.038,13.264-7.038-.972-10.573-.567-14.735,2.047-18.343,2.047-18.343Z" transform="translate(-1455.639 -4938.349)"/><path class="c" d="M1464.75,4982.591c-7.326,0-9.074-7.235-9.09-7.308l-.021-.09.031-.087a78.163,78.163,0,0,0,3.363-14.213c.93-7.305-.94-21.976-.96-22.123l-.054-.421,21.825,3.546-.035.3c-.017.142-1.647,14.226-2.047,18.338-.4,4.085.557,14.569.567,14.675l.012.134-.088.1C1478,4975.736,1471.971,4982.591,1464.75,4982.591Zm-8.452-7.364c.214.826,1.975,6.731,8.452,6.731s12.164-5.983,12.936-6.83c-.118-1.309-.937-10.721-.554-14.656.368-3.782,1.774-15.975,2.013-18.049l-20.392-3.313c.3,2.47,1.758,15.182.908,21.862A78.893,78.893,0,0,1,1456.3,4975.227Z" transform="translate(-1455.639 -4938.349)"/></g><g transform="translate(34.292 50.088)"><path class="j" d="M1467.875,4857.191s-24.178-18.1-36.6-14.521c0,0,9.654-6.062,36.164,11.321S1467.875,4857.191,1467.875,4857.191Z" transform="translate(-1429.202 -4841.33)"/><path class="c" d="M1479.242,4862.964c-.512,0-1.863-.493-5.925-2.555-2.787-1.415-5.565-2.925-5.593-2.941l-.038-.024c-.24-.18-24.192-17.966-36.328-14.47l-2.156.621,1.9-1.193c.1-.064,2.575-1.565,8.345-.9,5.259.6,14.414,3.216,28.161,12.229,12.492,8.191,12.235,8.62,11.986,9.035A.341.341,0,0,1,1479.242,4862.964Zm-11.195-6.04a114.766,114.766,0,0,0,10.58,5.263c-.874-.786-3.535-2.8-11.366-7.932-13.579-8.9-22.6-11.5-27.786-12.117a23.794,23.794,0,0,0-2.795-.173h0C1449.4,4843.131,1466.981,4856.127,1468.047,4856.924Z" transform="translate(-1429.202 -4841.33)"/></g><g transform="translate(62.35 108.494)"><path class="i" d="M1460.008,4900.116s1.9,14.774.96,22.2a77.869,77.869,0,0,1-3.379,14.279s1.623,7.063,8.782,7.063,13.264-7.038,13.264-7.038-.972-10.573-.567-14.735,2.047-18.343,2.047-18.343Z" transform="translate(-1457.26 -4899.735)"/><path class="c" d="M1466.371,4943.977c-7.326,0-9.074-7.235-9.091-7.308l-.02-.09.031-.087a78.193,78.193,0,0,0,3.363-14.213c.93-7.3-.94-21.975-.96-22.123l-.054-.421,21.824,3.546-.034.3c-.017.141-1.647,14.225-2.047,18.337-.4,4.085.557,14.569.567,14.675l.012.134-.088.1C1479.62,4937.122,1473.591,4943.977,1466.371,4943.977Zm-8.452-7.364c.214.826,1.975,6.731,8.452,6.731s12.164-5.983,12.936-6.83c-.118-1.308-.937-10.721-.554-14.656.368-3.782,1.774-15.974,2.013-18.049l-20.392-3.313c.3,2.47,1.758,15.182.908,21.863A78.963,78.963,0,0,1,1457.919,4936.613Z" transform="translate(-1457.26 -4899.735)"/></g><g transform="translate(85.253 25.011)"><path class="k" d="M1509.825,4816.539s-26.666,12.62-29.34,35.021l.667,2.383S1483.151,4833.309,1509.825,4816.539Z" transform="translate(-1480.163 -4816.252)"/><path class="c" d="M1481.3,4855.655l-1.139-4.07.008-.062c1.393-11.674,9.351-20.645,15.781-26.115a70.681,70.681,0,0,1,13.737-9.156l.3.554c-13.7,8.616-20.728,18.263-24.21,24.838-3.771,7.124-4.311,12.278-4.316,12.33Zm-.495-4.119.262.937a41.718,41.718,0,0,1,4.137-11.091,64,64,0,0,1,17.881-20.541,71.518,71.518,0,0,0-6.737,5.059C1490.023,4831.286,1482.2,4840.1,1480.807,4851.536Z" transform="translate(-1480.163 -4816.252)"/></g><g transform="translate(64.781 69.795)"><path class="i" d="M1462.44,4861.417s1.905,14.774.959,22.2a77.778,77.778,0,0,1-3.379,14.279s1.623,7.063,8.782,7.063,13.264-7.038,13.264-7.038-.972-10.573-.567-14.735,2.048-18.343,2.048-18.343Z" transform="translate(-1459.691 -4861.036)"/><path class="c" d="M1468.8,4905.278c-7.326,0-9.074-7.235-9.09-7.308l-.021-.09.031-.087a78.163,78.163,0,0,0,3.363-14.213c.93-7.3-.94-21.975-.959-22.123l-.055-.421,21.825,3.546-.035.3c-.016.141-1.646,14.225-2.047,18.337-.4,4.085.557,14.569.567,14.675l.013.134-.089.1C1482.052,4898.423,1476.023,4905.278,1468.8,4905.278Zm-8.452-7.364c.214.826,1.975,6.731,8.452,6.731s12.164-5.983,12.937-6.83c-.118-1.309-.938-10.721-.555-14.656.369-3.782,1.774-15.974,2.014-18.049l-20.393-3.313c.3,2.47,1.759,15.182.908,21.863A78.873,78.873,0,0,1,1460.35,4897.914Z" transform="translate(-1459.691 -4861.036)"/></g><g transform="translate(67.212 31.299)"><path class="i" d="M1464.871,4822.92s1.905,14.774.96,22.2a77.87,77.87,0,0,1-3.379,14.279s1.623,7.063,8.782,7.063,13.263-7.038,13.263-7.038-.971-10.572-.566-14.734,2.047-18.344,2.047-18.344Z" transform="translate(-1462.122 -4822.54)"/><path class="c" d="M1471.234,4866.782c-7.327,0-9.074-7.236-9.091-7.309l-.021-.089.031-.088a78.1,78.1,0,0,0,3.364-14.213c.93-7.3-.941-21.975-.96-22.122l-.054-.421,21.824,3.546-.035.3c-.016.142-1.646,14.226-2.046,18.337-.4,4.085.557,14.57.567,14.675l.012.135-.088.1C1484.483,4859.926,1478.454,4866.782,1471.234,4866.782Zm-8.453-7.364c.215.826,1.975,6.731,8.453,6.731s12.164-5.984,12.936-6.831c-.118-1.308-.937-10.72-.554-14.656.368-3.781,1.773-15.974,2.013-18.049l-20.392-3.313c.3,2.47,1.758,15.182.908,21.863A78.882,78.882,0,0,1,1462.781,4859.418Z" transform="translate(-1462.122 -4822.54)"/></g><g transform="translate(68.365 24.354)"><ellipse class="l" cx="7.497" cy="10.739" rx="7.497" ry="10.739" transform="translate(0 14.65) rotate(-77.712)"/><path class="c" d="M1476.978,4833.2a15.415,15.415,0,0,1-3.277-.359,13.656,13.656,0,0,1-7.117-3.856,6.352,6.352,0,0,1,2.367-10.866,14.543,14.543,0,0,1,15.192,3.309,6.864,6.864,0,0,1,2.022,6.132h0a6.863,6.863,0,0,1-4.389,4.734A12.5,12.5,0,0,1,1476.978,4833.2Zm-3.231-15.354a11.857,11.857,0,0,0-4.553.857,5.727,5.727,0,0,0-2.146,9.852,13.914,13.914,0,0,0,14.485,3.155,6.249,6.249,0,0,0,4.013-4.285h0a6.251,6.251,0,0,0-1.867-5.567,13.033,13.033,0,0,0-6.787-3.667A14.79,14.79,0,0,0,1473.747,4817.845Z" transform="translate(-1463.276 -4815.595)"/></g><g transform="translate(74.246 29.029)"><ellipse class="m" cx="3.85" cy="5.514" rx="3.85" ry="5.514" transform="translate(0 7.523) rotate(-77.712)"/><path class="c" d="M1476.173,4829.462a8.016,8.016,0,0,1-1.7-.185c-3.142-.685-5.3-3.068-4.811-5.312a3.674,3.674,0,0,1,2.345-2.541,7.619,7.619,0,0,1,7.974,1.737,3.674,3.674,0,0,1,1.076,3.286C1480.662,4828.279,1478.619,4829.462,1476.173,4829.462Zm-1.64-7.882a5.945,5.945,0,0,0-2.278.428,3.061,3.061,0,0,0-1.97,2.091c-.415,1.9,1.526,3.949,4.327,4.559s5.416-.443,5.83-2.346a3.062,3.062,0,0,0-.922-2.721,6.538,6.538,0,0,0-3.405-1.837A7.472,7.472,0,0,0,1474.533,4821.58Z" transform="translate(-1469.156 -4820.271)"/></g><g transform="translate(60.425 183.557)"><path class="n" d="M1478.156,4978.325c0,3.524-5.039,6.382-11.252,6.382s-11.253-2.858-11.253-6.382l.018-3.042a.158.158,0,0,1,.3-.071,5.383,5.383,0,0,0,.486.741,8.181,8.181,0,0,0,2.905,2.287,18.2,18.2,0,0,0,14.809.054,8.972,8.972,0,0,0,3.1-2.462,4.775,4.775,0,0,0,.522-.661.122.122,0,0,1,.225.066l.055,2.22A4.852,4.852,0,0,1,1478.156,4978.325Z" transform="translate(-1455.335 -4974.798)"/><path class="c" d="M1466.9,4985.023c-6.379,0-11.569-3-11.569-6.7l.017-3.044a.475.475,0,0,1,.9-.215,5.175,5.175,0,0,0,.459.7,7.909,7.909,0,0,0,2.793,2.193,17.877,17.877,0,0,0,14.528.053,8.6,8.6,0,0,0,2.99-2.375c.019-.024.051-.059.091-.1a3.443,3.443,0,0,0,.409-.525.43.43,0,0,1,.487-.192.436.436,0,0,1,.324.42l.055,2.192a5.173,5.173,0,0,1,.088.9C1478.473,4982.018,1473.283,4985.023,1466.9,4985.023Zm-10.922-9.184-.014,2.488c0,3.342,4.906,6.063,10.936,6.063s10.936-2.721,10.936-6.065a4.581,4.581,0,0,0-.083-.814l0-.046-.042-1.658c-.05.058-.1.108-.132.149l-.064.072a9.242,9.242,0,0,1-3.208,2.55,18.495,18.495,0,0,1-15.09-.056,8.516,8.516,0,0,1-3.016-2.379C1456.119,4976.033,1456.046,4975.933,1455.982,4975.839Zm21.715-.594v0Z" transform="translate(-1455.335 -4974.798)"/></g><g transform="translate(62.046 144.943)"><path class="n" d="M1479.777,4939.711c0,3.524-5.039,6.382-11.252,6.382s-11.253-2.858-11.253-6.382l.017-3.042a.159.159,0,0,1,.3-.071,5.441,5.441,0,0,0,.486.742,8.179,8.179,0,0,0,2.905,2.286,18.195,18.195,0,0,0,14.809.054,8.955,8.955,0,0,0,3.1-2.462,4.7,4.7,0,0,0,.522-.661.122.122,0,0,1,.225.066l.055,2.22A4.948,4.948,0,0,1,1479.777,4939.711Z" transform="translate(-1456.956 -4936.184)"/><path class="c" d="M1468.525,4946.409c-6.379,0-11.569-3.005-11.569-6.7l.017-3.043a.475.475,0,0,1,.9-.216,5.082,5.082,0,0,0,.459.7,7.905,7.905,0,0,0,2.793,2.193,17.874,17.874,0,0,0,14.528.053,8.608,8.608,0,0,0,2.99-2.375c.019-.024.051-.059.09-.1a3.455,3.455,0,0,0,.41-.526.43.43,0,0,1,.487-.192.436.436,0,0,1,.324.42l.055,2.191a5.183,5.183,0,0,1,.088.9C1480.094,4943.4,1474.9,4946.409,1468.525,4946.409Zm-10.922-9.184-.014,2.488c0,3.342,4.906,6.063,10.936,6.063s10.936-2.721,10.936-6.065a4.59,4.59,0,0,0-.083-.814l-.005-.046-.041-1.657c-.05.058-.1.108-.133.15s-.05.054-.063.071a9.233,9.233,0,0,1-3.208,2.549,18.5,18.5,0,0,1-15.091-.055,8.545,8.545,0,0,1-3.015-2.38Q1457.7,4937.365,1457.6,4937.225Zm21.715-.594v0Z" transform="translate(-1456.956 -4936.184)"/></g><g transform="translate(64.477 106.244)"><path class="n" d="M1482.209,4901.012c0,3.524-5.039,6.382-11.253,6.382s-11.252-2.858-11.252-6.382l.017-3.042a.158.158,0,0,1,.3-.071,5.374,5.374,0,0,0,.487.742,8.188,8.188,0,0,0,2.9,2.286,18.195,18.195,0,0,0,14.809.054,8.972,8.972,0,0,0,3.1-2.462,4.638,4.638,0,0,0,.522-.661.122.122,0,0,1,.225.066l.055,2.22A4.86,4.86,0,0,1,1482.209,4901.012Z" transform="translate(-1459.387 -4897.485)"/><path class="c" d="M1470.956,4907.71c-6.379,0-11.569-3-11.569-6.7l.017-3.044a.475.475,0,0,1,.9-.215,5.21,5.21,0,0,0,.459.7,7.92,7.92,0,0,0,2.793,2.193,17.874,17.874,0,0,0,14.529.052,8.608,8.608,0,0,0,2.99-2.374c.019-.024.05-.059.09-.1a3.514,3.514,0,0,0,.409-.526.431.431,0,0,1,.487-.192.439.439,0,0,1,.325.42l.054,2.191a5.1,5.1,0,0,1,.088.9C1482.525,4904.705,1477.335,4907.71,1470.956,4907.71Zm-10.922-9.184-.014,2.488c0,3.342,4.906,6.063,10.936,6.063s10.936-2.721,10.936-6.065a4.673,4.673,0,0,0-.082-.814l-.005-.046-.041-1.658c-.05.059-.1.109-.134.15l-.063.072a9.243,9.243,0,0,1-3.207,2.549,18.5,18.5,0,0,1-15.091-.056,8.544,8.544,0,0,1-3.016-2.379C1460.171,4898.72,1460.1,4898.62,1460.034,4898.526Zm-.3-.481Zm22.011-.113v0Z" transform="translate(-1459.387 -4897.485)"/></g><g transform="translate(66.908 67.747)"><path class="n" d="M1484.64,4862.515c0,3.524-5.039,6.382-11.253,6.382s-11.252-2.858-11.252-6.382l.017-3.041a.159.159,0,0,1,.3-.072,5.274,5.274,0,0,0,.486.742,8.189,8.189,0,0,0,2.9,2.286,18.184,18.184,0,0,0,14.81.054,8.968,8.968,0,0,0,3.1-2.462,4.721,4.721,0,0,0,.522-.661.122.122,0,0,1,.224.066l.056,2.22A4.955,4.955,0,0,1,1484.64,4862.515Z" transform="translate(-1461.818 -4858.988)"/><path class="c" d="M1473.387,4869.214c-6.379,0-11.569-3-11.569-6.7l.018-3.043a.467.467,0,0,1,.362-.459.478.478,0,0,1,.535.244,5.213,5.213,0,0,0,.458.7,7.918,7.918,0,0,0,2.793,2.192,17.882,17.882,0,0,0,14.529.053,8.632,8.632,0,0,0,2.99-2.375c.019-.023.051-.059.091-.1a3.533,3.533,0,0,0,.408-.525.439.439,0,0,1,.812.226l.055,2.193a5.181,5.181,0,0,1,.088.9C1484.957,4866.209,1479.767,4869.214,1473.387,4869.214Zm-10.922-9.184-.014,2.487c0,3.343,4.906,6.064,10.936,6.064s10.937-2.721,10.937-6.066a4.576,4.576,0,0,0-.083-.813l-.005-.047-.041-1.657c-.05.058-.095.108-.132.149s-.051.055-.064.072a9.245,9.245,0,0,1-3.208,2.549,18.5,18.5,0,0,1-15.091-.055,8.543,8.543,0,0,1-3.015-2.379C1462.6,4860.224,1462.53,4860.123,1462.465,4860.03Zm21.716-.595v0Z" transform="translate(-1461.818 -4858.988)"/></g><g transform="translate(99.929 120.226)"><path class="o" d="M1496.767,4912.385s10.637-6.686,19.45,24.618C1516.217,4937,1488.257,4916.944,1496.767,4912.385Z" transform="translate(-1494.839 -4911.467)"/><path class="c" d="M1516.767,4937.787l-.734-.527c-.884-.634-21.642-15.61-21.187-22.575a3.05,3.05,0,0,1,1.763-2.574,6.168,6.168,0,0,1,5.3-.132c3.884,1.5,9.57,7.036,14.611,24.938Zm-17.475-25.683a4.808,4.808,0,0,0-2.357.549l-.019.012a2.423,2.423,0,0,0-1.438,2.061c-.386,5.907,16.412,18.687,20.182,21.476-4.9-16.945-10.292-22.214-13.976-23.632A6.623,6.623,0,0,0,1499.292,4912.1Z" transform="translate(-1494.839 -4911.467)"/></g><g transform="translate(100.991 113.065)"><path class="p" d="M1496.239,4909.267s-1.991-11.791,33.609,2.183C1529.848,4911.45,1497.033,4918.19,1496.239,4909.267Z" transform="translate(-1495.901 -4904.306)"/><path class="c" d="M1508.394,4914.216c-4.574,0-8.672-.546-10.833-2.155a3.776,3.776,0,0,1-.152-6.137c2.858-2.321,10.826-3.3,32.555,5.232l.993.39-1.045.214C1529.207,4911.9,1517.8,4914.216,1508.394,4914.216Zm-4.722-9.26c-3.238,0-4.955.722-5.864,1.459a3.166,3.166,0,0,0-1.257,2.8l0,.025a3.146,3.146,0,0,0,1.385,2.314c5.622,4.184,25.871.713,30.774-.205C1515.937,4906.411,1508.271,4904.956,1503.672,4904.956Z" transform="translate(-1495.901 -4904.306)"/></g><g transform="translate(110.459 84.863)"><path class="q" d="M1507.4,4902.887s-10.718-5.3,21.48-25.941C1528.878,4876.946,1515.091,4907.477,1507.4,4902.887Z" transform="translate(-1505.37 -4876.104)"/><path class="c" d="M1509.094,4903.673a3.564,3.564,0,0,1-1.849-.509,3.776,3.776,0,0,1-1.868-3.185c-.2-3.676,3.679-10.7,23.33-23.3l.9-.575-.439.972c-.441.975-10.876,23.912-18.73,26.379A4.466,4.466,0,0,1,1509.094,4903.673Zm19.035-25.867c-19.552,12.681-22.265,19.291-22.121,22.12a3.146,3.146,0,0,0,1.532,2.678l.02.012a3.146,3.146,0,0,0,2.687.235C1516.932,4900.752,1526,4882.315,1528.129,4877.806Z" transform="translate(-1505.37 -4876.104)"/></g><g transform="translate(110.458 102.691)"><path class="p" d="M1505.75,4899.676s-3.083-11.553,33.666-.961C1539.416,4898.715,1507.373,4908.486,1505.75,4899.676Z" transform="translate(-1505.368 -4893.932)"/><path class="c" d="M1514.247,4903.678c-2.871,0-5.331-.377-6.921-1.343a3.775,3.775,0,0,1-.723-6.1c2.629-2.577,10.471-4.293,32.9,2.172l1.025.295-1.02.311C1538.716,4899.259,1524.082,4903.677,1514.247,4903.678Zm1.012-9.1c-4.913,0-7.167,1.093-8.2,2.1a3.148,3.148,0,0,0-1,2.918l.005.023a3.143,3.143,0,0,0,1.594,2.175c5.988,3.641,25.826-1.7,30.621-3.075C1527.25,4895.6,1520.01,4894.582,1515.259,4894.582Z" transform="translate(-1505.368 -4893.932)"/></g><g transform="translate(83.587 14.466)"><path class="d" d="M1504.428,4818.808s-5.236,9.612-25.075-12.618C1479.353,4806.19,1508.95,4811.767,1504.428,4818.808Z" transform="translate(-1478.497 -4805.707)"/><path class="c" d="M1500.128,4821.191c-3.745,0-10.283-2.769-21.012-14.79l-.619-.694.914.172c.938.177,23.012,4.4,25.555,10.3a2.842,2.842,0,0,1-.266,2.792,4.908,4.908,0,0,1-3.765,2.175A7.145,7.145,0,0,1,1500.128,4821.191Zm-19.9-14.5c10.949,12.085,17.246,14.205,20.613,13.833a4.271,4.271,0,0,0,3.313-1.864l.011-.019a2.216,2.216,0,0,0,.223-2.207C1502.257,4811.491,1484.518,4807.569,1480.225,4806.687Z" transform="translate(-1478.497 -4805.707)"/></g><g transform="translate(108.81 10.324)"><path class="r" d="M1504.952,4821.9s-7.418-8.049,20.012-19.685C1524.964,4802.22,1510.165,4828.451,1504.952,4821.9Z" transform="translate(-1503.72 -4801.565)"/><path class="c" d="M1507.005,4823.271a2.845,2.845,0,0,1-2.3-1.161,4.9,4.9,0,0,1-.848-4.264c.76-3.524,5.017-9.146,20.978-15.918l.857-.363-.457.81c-.469.832-11.565,20.375-17.972,20.885C1507.179,4823.267,1507.092,4823.271,1507.005,4823.271Zm17.208-20.385c-14.993,6.494-19.018,11.779-19.733,15.094a4.3,4.3,0,0,0,.7,3.711l.015.017a2.223,2.223,0,0,0,2.019.922C1512.579,4822.2,1522,4806.667,1524.213,4802.886Z" transform="translate(-1503.72 -4801.565)"/></g><g transform="translate(103.623)"><path class="s" d="M1506.814,4819.3s-10.653,2.51-7.324-27.1C1499.49,4792.2,1515.077,4817.972,1506.814,4819.3Z" transform="translate(-1498.533 -4791.241)"/><path class="c" d="M1506.21,4819.671a5.2,5.2,0,0,1-3.467-1.414c-2.7-2.393-5.505-8.862-3.567-26.092l.1-.924.481.8c.494.817,12.072,20.078,9.371,25.91a2.842,2.842,0,0,1-2.258,1.664A3.267,3.267,0,0,1,1506.21,4819.671Zm-6.508-26.489c-1.7,16.219.917,22.325,3.443,24.585a4.272,4.272,0,0,0,3.6,1.225l.021,0a2.221,2.221,0,0,0,1.794-1.307C1510.818,4812.8,1501.908,4796.969,1499.7,4793.182Z" transform="translate(-1498.533 -4791.241)"/></g><g transform="translate(88.058 39.561)"><path class="g" d="M1484.752,4849.027s9.409,4.213,16.215-17.509C1500.967,4831.518,1477.245,4846.2,1484.752,4849.027Z" transform="translate(-1482.968 -4830.802)"/><path class="c" d="M1486.692,4849.675a5.463,5.463,0,0,1-2.06-.355,2.22,2.22,0,0,1-1.655-1.838c-.471-4.853,17.076-15.77,17.824-16.233l.722-.447-.254.811c-3.688,11.771-8.181,15.916-11.3,17.321A7.952,7.952,0,0,1,1486.692,4849.675Zm-1.812-.937a6.339,6.339,0,0,0,4.854-.393c2.922-1.327,7.113-5.206,10.668-16.1-5.414,3.43-17.138,11.639-16.795,15.174.057.585.468,1.014,1.256,1.311Z" transform="translate(-1482.968 -4830.802)"/></g><g transform="translate(100.542 30.253)"><path class="t" d="M1497.48,4824.553c5.187-4.714,24.314-4.458,33.837,9.725,0,0-24.29-7.5-28.962-4.863S1493.207,4828.436,1497.48,4824.553Z" transform="translate(-1495.452 -4821.495)"/><path class="c" d="M1532.078,4834.844l-.855-.264c-.241-.074-24.213-7.426-28.713-4.889-2.869,1.618-5.523.961-6.564-.479-.778-1.078-.84-2.93,1.321-4.894h0c2.511-2.281,7.843-3.3,13.583-2.607a29,29,0,0,1,20.729,12.391Zm-26.452-6.3c7.164,0,21.216,4.059,24.91,5.164a28.46,28.46,0,0,0-19.762-11.372c-5.483-.667-10.737.318-13.081,2.448h0c-1.573,1.43-2.035,2.945-1.234,4.054.892,1.235,3.283,1.685,5.741.3A7.415,7.415,0,0,1,1505.626,4828.547Z" transform="translate(-1495.452 -4821.495)"/></g><g transform="translate(82.924 107.263)"><path class="u" d="M1510.424,4898.8s-27.66,10.259-32.268,32.344l.458,2.431S1485.978,4913.89,1510.424,4898.8Z" transform="translate(-1477.834 -4898.504)"/><path class="c" d="M1478.513,4934.749l-.679-3.608.013-.061c2.4-11.509,11.107-19.755,17.988-24.647a70.655,70.655,0,0,1,14.479-7.929l.276.566c-24.063,14.853-31.607,34.421-31.68,34.617Zm-.034-3.6.252,1.34c1.769-3.954,9.475-19.154,28.268-31.851a72.69,72.69,0,0,0-10.811,6.321C1489.417,4911.774,1480.855,4919.877,1478.479,4931.148Z" transform="translate(-1477.834 -4898.504)"/></g><g transform="translate(0 103.802)"><path class="e" d="M1422.536,4904.037s-3.709,10.3-26.707-8.647C1395.829,4895.39,1425.931,4896.388,1422.536,4904.037Z" transform="translate(-1394.91 -4895.043)"/><path class="c" d="M1417.337,4907.144c-3.94,0-10.615-2.371-21.709-11.51l-.718-.591.93.031c.954.031,23.413.837,26.827,6.282a2.842,2.842,0,0,1,.162,2.8,4.9,4.9,0,0,1-3.389,2.724A7.921,7.921,0,0,1,1417.337,4907.144Zm-20.57-11.4c12.69,10.294,19.238,11.42,22.506,10.521a4.306,4.306,0,0,0,2.966-2.339l.008-.021a2.221,2.221,0,0,0-.116-2.217C1419.274,4897.136,1401.144,4895.965,1396.767,4895.748Z" transform="translate(-1394.91 -4895.043)"/></g><g transform="translate(96.664 64.068)"><path class="f" d="M1492.806,4875.649s-7.418-8.049,20.012-19.685C1512.818,4855.964,1498.019,4882.195,1492.806,4875.649Z" transform="translate(-1491.574 -4855.309)"/><path class="c" d="M1494.859,4877.015a2.845,2.845,0,0,1-2.3-1.161,4.906,4.906,0,0,1-.849-4.264c.761-3.524,5.018-9.146,20.979-15.918l.857-.363-.457.81c-.469.832-11.565,20.375-17.972,20.885C1495.033,4877.011,1494.946,4877.015,1494.859,4877.015Zm17.208-20.385c-14.964,6.481-19,11.759-19.728,15.069a4.276,4.276,0,0,0,.7,3.737l.014.016a2.215,2.215,0,0,0,2.019.921C1500.432,4875.946,1509.851,4860.411,1512.067,4856.63Z" transform="translate(-1491.574 -4855.309)"/></g><g transform="translate(103.557 91.033)"><path class="v" d="M1501.913,4906.865s-8.794-.144,3.067-23.559C1504.98,4883.306,1508.537,4907.48,1501.913,4906.865Z" transform="translate(-1498.467 -4882.274)"/><path class="c" d="M1502.159,4907.193c-.087,0-.175,0-.265-.012a3.332,3.332,0,0,1-2.6-1.716c-1.462-2.424-1.712-8.261,5.4-22.3l.451-.889.145.986c.113.77,2.733,18.928-1.184,23.06A2.611,2.611,0,0,1,1502.159,4907.193Zm2.643-22.828c-6.5,13.089-6.31,18.511-4.974,20.755a2.7,2.7,0,0,0,2.092,1.429h.022a1.98,1.98,0,0,0,1.708-.665C1506.851,4902.508,1505.3,4888.3,1504.8,4884.365Z" transform="translate(-1498.467 -4882.274)"/></g><g transform="translate(95.552 58.082)"><path class="f" d="M1491.636,4873.637s-4.61-11.554,7.21-23.441C1498.846,4850.2,1494.988,4882.93,1491.636,4873.637Z" transform="translate(-1490.462 -4849.323)"/><path class="c" d="M1492.9,4875.614c-.594,0-1.1-.612-1.558-1.866-.13-.34-4.432-11.994,7.283-23.775l.645-.65-.107.91c-.007.062-.743,6.27-1.832,12.439-2.242,12.7-3.758,12.871-4.329,12.937A.914.914,0,0,1,1492.9,4875.614Zm5.519-24.52c-10.7,11.354-6.531,22.314-6.486,22.426l0,.01c.5,1.392.889,1.468.993,1.45.38-.044,1.775-1.068,3.779-12.418C1497.541,4857.821,1498.169,4853.058,1498.416,4851.094Z" transform="translate(-1490.462 -4849.323)"/></g><g transform="translate(4.348 92.95)"><path class="e" d="M1421.743,4902.588s-7.19,8.253-21.754-17.741C1399.989,4884.847,1427.68,4896.691,1421.743,4902.588Z" transform="translate(-1399.258 -4884.191)"/><path class="c" d="M1418.485,4904.15a6.322,6.322,0,0,1-.658-.035c-3.586-.37-9.639-3.987-18.114-19.113l-.455-.811.855.365c.878.376,21.516,9.269,22.724,15.582a2.843,2.843,0,0,1-.864,2.668A4.754,4.754,0,0,1,1418.485,4904.15Zm-17.752-18.629c8.093,14.194,13.787,17.616,17.159,17.965a4.291,4.291,0,0,0,3.613-1.106l.015-.016a2.218,2.218,0,0,0,.695-2.108C1421.2,4894.974,1404.733,4887.311,1400.733,4885.521Z" transform="translate(-1399.258 -4884.191)"/></g><g transform="translate(4.266 125.086)"><path class="e" d="M1415.447,4917.687s3.481,6.389-15.431,9.983C1400.016,4927.67,1413.129,4912.613,1415.447,4917.687Z" transform="translate(-1399.176 -4916.328)"/><path class="c" d="M1399.176,4928.151l.6-.689c.416-.479,10.251-11.715,14.42-11.111a1.932,1.932,0,0,1,1.534,1.2,3.564,3.564,0,0,1-.127,3.094c-1.041,2.2-4.58,5.258-15.53,7.339Zm14.66-11.193c-3.1,0-9.868,6.785-12.962,10.221,9.939-2.013,13.186-4.786,14.147-6.785a2.935,2.935,0,0,0,.147-2.557l-.009-.018a1.32,1.32,0,0,0-1.053-.842A1.791,1.791,0,0,0,1413.836,4916.958Z" transform="translate(-1399.176 -4916.328)"/></g><g transform="translate(13.787 127.828)"><path class="w" d="M1414.3,4919.581s6.792,2.608-5.279,17.6C1409.024,4937.185,1409.249,4917.22,1414.3,4919.581Z" transform="translate(-1408.697 -4919.069)"/><path class="c" d="M1408.7,4938.1l.01-.914c.007-.634.216-15.569,3.778-17.808a1.935,1.935,0,0,1,1.944-.082,3.563,3.563,0,0,1,1.909,2.438c.633,2.349-.079,6.973-7.068,15.654Zm4.8-18.391a1.251,1.251,0,0,0-.68.205c-2.535,1.594-3.33,11.585-3.463,16.346,6.263-7.975,6.938-12.191,6.374-14.337a2.931,2.931,0,0,0-1.545-2.042l-.019-.008A1.572,1.572,0,0,0,1413.5,4919.7Z" transform="translate(-1408.697 -4919.069)"/></g><g transform="translate(9.943 111.71)"><path class="f" d="M1414.178,4903.354s7.221,1.544-8.831,18.8C1405.347,4922.156,1408.874,4901.777,1414.178,4903.354Z" transform="translate(-1404.853 -4902.952)"/><path class="c" d="M1404.853,4923.151l.182-1.049c.113-.653,2.818-16.025,7.176-18.727a2.455,2.455,0,0,1,3.74,1.381c.695,2.2-.541,7.045-10.373,17.615Zm8.738-19.568a1.972,1.972,0,0,0-1.047.33c-3.479,2.158-5.975,13.62-6.682,17.217,9.393-10.28,9.993-14.533,9.491-16.166a1.838,1.838,0,0,0-1.243-1.3l-.022-.006A1.747,1.747,0,0,0,1413.591,4903.583Z" transform="translate(-1404.853 -4902.952)"/></g><g transform="translate(41.061 108.884)"><path class="d" d="M1438.556,4918.574s-6.692-.912,2.88-17.463C1441.436,4901.111,1443.585,4919.642,1438.556,4918.574Z" transform="translate(-1435.971 -4900.125)"/><path class="c" d="M1438.965,4918.935a2.223,2.223,0,0,1-.466-.05,2.926,2.926,0,0,1-2.04-1.686c-.981-2-.963-6.45,4.7-16.247l.478-.827.11.949c.069.591,1.643,14.509-1.454,17.327A1.925,1.925,0,0,1,1438.965,4918.935Zm2.256-16.809c-5.041,8.953-5.08,12.985-4.193,14.795a2.293,2.293,0,0,0,1.57,1.339l.023,0a1.332,1.332,0,0,0,1.249-.33C1442.284,4915.736,1441.525,4905.379,1441.221,4902.126Z" transform="translate(-1435.971 -4900.125)"/></g><g transform="translate(17.042 124.816)"><path class="h" d="M1428.346,4916.642s-13.124-1.517-15.731,2.745c0,0,13.821-3.21,17.655,0S1428.346,4916.642,1428.346,4916.642Z" transform="translate(-1411.952 -4916.057)"/><path class="c" d="M1431.583,4920.664c-.234,0-.614-.279-1.516-1.034-3.67-3.073-17.243.034-17.38.065l-.735.171.393-.644c2.682-4.384,15.493-2.957,16.037-2.894l.112.013.079.081c3.607,3.73,3.477,3.87,3.24,4.124A.305.305,0,0,1,1431.583,4920.664Zm-8.374-3.966c-3.512,0-7.875.4-9.775,2.187,2.995-.623,12.582-2.372,16.452-.147-.512-.559-1.108-1.192-1.689-1.794C1427.707,4916.893,1425.665,4916.7,1423.209,4916.7Z" transform="translate(-1411.952 -4916.057)"/></g><g transform="translate(40.624 121.479)"><path class="x" d="M1436.35,4924.753s-4.5-5.037,13.525-11.416C1449.875,4913.337,1439.482,4928.83,1436.35,4924.753Z" transform="translate(-1435.534 -4912.72)"/><path class="c" d="M1437.708,4925.753a1.942,1.942,0,0,1-1.6-.8,2.927,2.927,0,0,1-.457-2.606c.554-2.162,3.454-5.532,14.123-9.308l.9-.319-.533.793c-.331.495-8.167,12.1-12.352,12.239Zm11.345-11.783c-9.616,3.529-12.273,6.564-12.787,8.512a2.3,2.3,0,0,0,.321,2.062l.014.017a1.331,1.331,0,0,0,1.165.559C1441.029,4925.015,1447.173,4916.642,1449.053,4913.97Z" transform="translate(-1435.534 -4912.72)"/></g><g transform="translate(36.144 112.239)"><path class="f" d="M1438.67,4919.305s-5.884,2.651-7.229-14.92C1431.441,4904.385,1443.3,4917.609,1438.67,4919.305Z" transform="translate(-1431.054 -4903.48)"/><path class="c" d="M1437.85,4919.765a3.317,3.317,0,0,1-1.709-.5c-1.853-1.1-4.228-4.57-5.016-14.86l-.071-.93.623.694c.377.422,9.246,10.364,8.31,14.118a1.805,1.805,0,0,1-1.2,1.308A2.522,2.522,0,0,1,1437.85,4919.765Zm-6.014-14.451c.831,9.279,2.96,12.422,4.628,13.412a2.391,2.391,0,0,0,2.076.291l.022-.009a1.19,1.19,0,0,0,.811-.869C1440.029,4915.506,1434.639,4908.561,1431.836,4905.314Z" transform="translate(-1431.054 -4903.48)"/></g><g transform="translate(13.465 148.8)"><path class="x" d="M1428.669,4941.794s3.067,7.412-19.353,7.824C1409.316,4949.618,1426.751,4935.986,1428.669,4941.794Z" transform="translate(-1408.375 -4940.042)"/><path class="c" d="M1408.375,4949.952l.746-.584c.555-.433,13.642-10.6,18.314-9.192a2.23,2.23,0,0,1,1.532,1.51,3.5,3.5,0,0,1-.5,3.1c-1.45,2.213-5.948,4.9-19.141,5.144Zm18-9.287c-4.276,0-13.381,6.583-16.088,8.614,12.162-.344,16.318-2.8,17.649-4.836a2.872,2.872,0,0,0,.444-2.528l-.008-.022a1.606,1.606,0,0,0-1.117-1.111A3.02,3.02,0,0,0,1426.372,4940.665Z" transform="translate(-1408.375 -4940.042)"/></g><g transform="translate(21.878 127.69)"><path class="x" d="M1421.058,4935.44s-6.192.83-3.09-15.548C1417.968,4919.892,1425.836,4935.142,1421.058,4935.44Z" transform="translate(-1416.788 -4918.931)"/><path class="c" d="M1420.914,4935.763a3.161,3.161,0,0,1-2.278-1.067c-1.442-1.523-2.783-5.337-.979-14.863l.171-.9.421.816c.251.486,6.118,11.934,4.308,15.123a1.712,1.712,0,0,1-1.47.885A1.392,1.392,0,0,1,1420.914,4935.763Zm-2.8-14.885c-1.5,8.551-.315,11.989.969,13.364a2.432,2.432,0,0,0,1.94.884l.021,0a1.1,1.1,0,0,0,.968-.566C1423.264,4932.342,1419.938,4924.6,1418.109,4920.878Z" transform="translate(-1416.788 -4918.931)"/></g><g transform="translate(16.058 113.886)"><path class="y" d="M1412.541,4920.425s-5.516-2.934,6.55-14.435C1419.091,4905.99,1416.6,4922.967,1412.541,4920.425Z" transform="translate(-1410.968 -4905.127)"/><path class="c" d="M1413.364,4921a1.852,1.852,0,0,1-.983-.3,3.061,3.061,0,0,1-1.374-2.289c-.285-2.078.848-5.959,7.866-12.648l.665-.634-.134.909c-.079.541-1.984,13.263-5.313,14.8A1.729,1.729,0,0,1,1413.364,4921Zm5.268-14.129c-6.221,6.1-7.254,9.583-7,11.449a2.426,2.426,0,0,0,1.056,1.823l.019.011a1.105,1.105,0,0,0,1.117.1C1416.14,4919.193,1417.952,4910.959,1418.632,4906.874Z" transform="translate(-1410.968 -4905.127)"/></g><g transform="translate(8.22 141.331)"><path class="x" d="M1419.847,4934.617s.324,6.24-15.747,1.814C1404.1,4936.431,1419.939,4929.831,1419.847,4934.617Z" transform="translate(-1403.13 -4932.572)"/><path class="c" d="M1413.637,4938.326a37.229,37.229,0,0,1-9.621-1.589l-.886-.244.848-.353c.505-.211,12.393-5.126,15.423-3.063a1.715,1.715,0,0,1,.763,1.538,3.063,3.063,0,0,1-1.255,2.356C1418.011,4937.692,1416.427,4938.326,1413.637,4938.326Zm-8.543-1.956c8.4,2.188,11.923,1.292,13.4.123a2.429,2.429,0,0,0,1.039-1.862v-.02a1.1,1.1,0,0,0-.486-1.011C1416.938,4932.167,1408.946,4934.851,1405.094,4936.37Z" transform="translate(-1403.13 -4932.572)"/></g><g transform="translate(0.72 110.475)"><path class="f" d="M1415.847,4903.009s4.612,5.821-19.184,8.621C1396.663,4911.63,1412.75,4898.4,1415.847,4903.009Z" transform="translate(-1395.63 -4901.716)"/><path class="c" d="M1395.63,4912.07l.832-.685c.516-.424,12.694-10.389,17.845-9.627a2.5,2.5,0,0,1,1.8,1.066,2.425,2.425,0,0,1,.211,2.368c-.881,2.131-5,5.032-19.615,6.752Zm18.06-9.722c-4.351,0-13.163,6.638-15.957,8.832,14.126-1.785,17.346-4.654,18-6.23a1.794,1.794,0,0,0-.131-1.745l-.015-.02a1.87,1.87,0,0,0-1.369-.8A3.553,3.553,0,0,0,1413.69,4902.348Z" transform="translate(-1395.63 -4901.716)"/></g><g transform="translate(22.882 108.351)"><path class="z" d="M1420.444,4900.146c.3.2,12.163,17.121,15.148,26.138l2.378-10.232s-1.621,7.229-.608,11.618,7.091,21,8.1,28.2-4.558,3.343-4.558,3.343-5.471-25.779-8.308-30.922-10.763-23.152-13.537-26.254S1420.444,4900.146,1420.444,4900.146Z" transform="translate(-1417.792 -4899.592)"/><path class="c" d="M1443.7,4960.552a6.236,6.236,0,0,1-2.972-1.084l-.1-.071-.026-.123c-.055-.257-5.493-25.792-8.275-30.835-1-1.809-2.584-5.124-4.422-8.963-3.253-6.795-7.3-15.251-9.073-17.232-.931-1.041-1.224-1.748-.922-2.226.466-.74,2.128-.321,2.627-.175l.086.04c.451.3,11.472,16.192,14.909,25.277l2.134-9.18.616.141c-.016.071-1.593,7.211-.608,11.478.358,1.552,1.375,4.7,2.551,8.354,2.184,6.778,4.9,15.214,5.559,19.868.33,2.344,0,3.839-.977,4.443A2.073,2.073,0,0,1,1443.7,4960.552Zm-2.51-1.536c.689.446,2.355,1.281,3.282.709.733-.454.969-1.773.681-3.816-.648-4.6-3.357-13.007-5.535-19.762-1.18-3.663-2.2-6.828-2.565-8.406a18.975,18.975,0,0,1-.3-5.036l-1.1,4.747-.354-1.069c-2.884-8.71-14.177-24.9-15.022-25.957-.846-.234-1.7-.269-1.829-.07-.008.012-.175.31.858,1.465,1.832,2.049,5.732,10.2,9.173,17.382,1.833,3.829,3.417,7.137,4.406,8.93C1435.632,4933.128,1440.726,4956.837,1441.19,4959.016Z" transform="translate(-1417.792 -4899.592)"/></g><g transform="translate(22.073 142.209)"><path class="h" d="M1440.3,4952.421s-9.925-16.312-20.452-18.641l-1.739.709s6.961,1.216,18.172,15.8,5.611,5.572,5.611,5.572Z" transform="translate(-1416.983 -4933.45)"/><path class="c" d="M1443.257,4958.95c-.419,0-1.528-1.048-7.227-8.464-10.973-14.278-17.908-15.673-17.976-15.685l-1.071-.194,2.837-1.157.1.021c10.538,2.331,20.246,18.114,20.654,18.785l.017.032,1.584,3.427c1.755,2.827,1.512,3,1.277,3.158A.324.324,0,0,1,1443.257,4958.95Zm-24.192-24.509c2.236.809,8.476,3.96,17.467,15.659,3.406,4.432,5.115,6.492,5.973,7.439-.254-.464-.575-1.014-.882-1.507l-.018-.034-1.585-3.428c-.351-.57-10.043-16.14-20.145-18.459Z" transform="translate(-1416.983 -4933.45)"/></g><g transform="translate(31.835 139.301)"><path class="f" d="M1427.94,4938.744s-1.418-4.247-.658-5.868a4.711,4.711,0,0,0,.658-2.287,25.7,25.7,0,0,0,2.026,10.029C1432.117,4945.241,1427.94,4938.744,1427.94,4938.744Z" transform="translate(-1426.745 -4930.542)"/><path class="c" d="M1430.542,4942.609c-.28,0-.825-.516-2.868-3.693l-.034-.071c-.059-.179-1.449-4.387-.645-6.1a6.041,6.041,0,0,0,.627-1.941c0-.121,0-.2,0-.219l.629-.04a1.269,1.269,0,0,1,0,.277,25.387,25.387,0,0,0,2,9.666c.752,1.616.774,1.893.459,2.067A.342.342,0,0,1,1430.542,4942.609Zm-2.314-4c.489.759,1.022,1.552,1.468,2.181l-.016-.036a24.257,24.257,0,0,1-1.974-8.045q-.065.146-.138.3C1427,4934.232,1427.839,4937.427,1428.228,4938.607Z" transform="translate(-1426.745 -4930.542)"/></g></g></g></svg>